<mxfile host="app.diagrams.net" modified="2024-03-08T11:55:13.007Z" agent="Mozilla/5.0 (Windows NT 10.0; Win64; x64) AppleWebKit/537.36 (KHTML, like Gecko) Chrome/122.0.0.0 Safari/537.36" etag="TxewhAo06b48sWjaNfi3" version="23.1.4" type="device">
  <diagram name="PÃ¡gina-1" id="vv5jk-m4osrQ4DU4xtBe">
    <mxGraphModel dx="1290" dy="557" grid="1" gridSize="10" guides="1" tooltips="1" connect="1" arrows="1" fold="1" page="1" pageScale="1" pageWidth="827" pageHeight="1169" math="0" shadow="0">
      <root>
        <mxCell id="0" />
        <mxCell id="1" parent="0" />
        <mxCell id="L3LKIXxvK_jKDaVPSzeJ-4" value="Diagram Heading" style="shape=umlFrame;whiteSpace=wrap;html=1;pointerEvents=0;recursiveResize=0;container=1;collapsible=0;width=160;" vertex="1" parent="1">
          <mxGeometry x="190" y="70" width="540" height="270" as="geometry" />
        </mxCell>
        <mxCell id="L3LKIXxvK_jKDaVPSzeJ-11" value="&lt;font style=&quot;vertical-align: inherit;&quot;&gt;&lt;font style=&quot;vertical-align: inherit;&quot;&gt;Caso de biblioteca&lt;/font&gt;&lt;/font&gt;" style="ellipse;html=1;whiteSpace=wrap;" vertex="1" parent="L3LKIXxvK_jKDaVPSzeJ-4">
          <mxGeometry x="155" y="82.5" width="70" height="35" as="geometry" />
        </mxCell>
        <mxCell id="L3LKIXxvK_jKDaVPSzeJ-20" value="" style="endArrow=none;startArrow=none;endFill=0;startFill=0;endSize=8;html=1;verticalAlign=bottom;labelBackgroundColor=none;strokeWidth=3;rounded=0;exitX=0.5;exitY=0.5;exitDx=0;exitDy=0;exitPerimeter=0;" edge="1" parent="L3LKIXxvK_jKDaVPSzeJ-4" source="L3LKIXxvK_jKDaVPSzeJ-5">
          <mxGeometry width="160" relative="1" as="geometry">
            <mxPoint x="-5" y="99.5" as="sourcePoint" />
            <mxPoint x="155" y="99.5" as="targetPoint" />
          </mxGeometry>
        </mxCell>
        <mxCell id="L3LKIXxvK_jKDaVPSzeJ-24" value="&lt;font style=&quot;vertical-align: inherit;&quot;&gt;&lt;font style=&quot;vertical-align: inherit;&quot;&gt;&lt;font style=&quot;vertical-align: inherit;&quot;&gt;&lt;font style=&quot;vertical-align: inherit;&quot;&gt;&lt;font style=&quot;vertical-align: inherit;&quot;&gt;&lt;font style=&quot;vertical-align: inherit;&quot;&gt;Reserva livro&lt;/font&gt;&lt;/font&gt;&lt;/font&gt;&lt;/font&gt;&lt;/font&gt;&lt;/font&gt;" style="ellipse;html=1;whiteSpace=wrap;" vertex="1" parent="L3LKIXxvK_jKDaVPSzeJ-4">
          <mxGeometry x="145" y="130" width="75" height="40" as="geometry" />
        </mxCell>
        <mxCell id="L3LKIXxvK_jKDaVPSzeJ-29" value="&lt;font style=&quot;vertical-align: inherit;&quot;&gt;&lt;font style=&quot;vertical-align: inherit;&quot;&gt;emjitir comprovante&lt;/font&gt;&lt;/font&gt;" style="ellipse;html=1;whiteSpace=wrap;" vertex="1" parent="L3LKIXxvK_jKDaVPSzeJ-4">
          <mxGeometry x="370" y="110" width="75" height="40" as="geometry" />
        </mxCell>
        <mxCell id="L3LKIXxvK_jKDaVPSzeJ-30" value="&amp;lt;&amp;lt;include&amp;gt;&amp;gt;" style="html=1;verticalAlign=bottom;labelBackgroundColor=none;endArrow=open;endFill=0;dashed=1;rounded=0;" edge="1" parent="L3LKIXxvK_jKDaVPSzeJ-4">
          <mxGeometry width="160" relative="1" as="geometry">
            <mxPoint x="210" y="140" as="sourcePoint" />
            <mxPoint x="380" y="140" as="targetPoint" />
          </mxGeometry>
        </mxCell>
        <mxCell id="L3LKIXxvK_jKDaVPSzeJ-32" value="&lt;font style=&quot;vertical-align: inherit;&quot;&gt;&lt;font style=&quot;vertical-align: inherit;&quot;&gt;cadastrar aluno&amp;nbsp;&lt;/font&gt;&lt;/font&gt;" style="ellipse;html=1;whiteSpace=wrap;" vertex="1" parent="L3LKIXxvK_jKDaVPSzeJ-4">
          <mxGeometry x="370" y="170" width="75" height="40" as="geometry" />
        </mxCell>
        <mxCell id="L3LKIXxvK_jKDaVPSzeJ-34" value="&amp;lt;&amp;lt;extend&amp;gt;&amp;gt;" style="html=1;verticalAlign=bottom;labelBackgroundColor=none;endArrow=open;endFill=0;dashed=1;rounded=0;entryX=0;entryY=0.25;entryDx=0;entryDy=0;entryPerimeter=0;" edge="1" parent="L3LKIXxvK_jKDaVPSzeJ-4" target="L3LKIXxvK_jKDaVPSzeJ-32">
          <mxGeometry width="160" relative="1" as="geometry">
            <mxPoint x="200" y="160" as="sourcePoint" />
            <mxPoint x="360" y="160" as="targetPoint" />
          </mxGeometry>
        </mxCell>
        <mxCell id="L3LKIXxvK_jKDaVPSzeJ-35" value="" style="endArrow=none;startArrow=none;endFill=0;startFill=0;endSize=8;html=1;verticalAlign=bottom;labelBackgroundColor=none;strokeWidth=3;rounded=0;exitX=0.627;exitY=0.83;exitDx=0;exitDy=0;exitPerimeter=0;" edge="1" parent="L3LKIXxvK_jKDaVPSzeJ-4" source="L3LKIXxvK_jKDaVPSzeJ-5">
          <mxGeometry width="160" relative="1" as="geometry">
            <mxPoint x="-75" y="260.5" as="sourcePoint" />
            <mxPoint x="155" y="140" as="targetPoint" />
          </mxGeometry>
        </mxCell>
        <mxCell id="L3LKIXxvK_jKDaVPSzeJ-5" value="&lt;font style=&quot;vertical-align: inherit;&quot;&gt;&lt;font style=&quot;vertical-align: inherit;&quot;&gt;aluno&lt;/font&gt;&lt;/font&gt;" style="shape=umlActor;verticalLabelPosition=bottom;verticalAlign=top;html=1;" vertex="1" parent="1">
          <mxGeometry x="100" y="260" width="30" height="60" as="geometry" />
        </mxCell>
        <mxCell id="L3LKIXxvK_jKDaVPSzeJ-19" value="&lt;font style=&quot;vertical-align: inherit;&quot;&gt;&lt;font style=&quot;vertical-align: inherit;&quot;&gt;&lt;font style=&quot;vertical-align: inherit;&quot;&gt;&lt;font style=&quot;vertical-align: inherit;&quot;&gt;Professor&lt;/font&gt;&lt;/font&gt;&lt;/font&gt;&lt;/font&gt;" style="shape=umlActor;verticalLabelPosition=bottom;verticalAlign=top;html=1;" vertex="1" parent="1">
          <mxGeometry x="110" y="410" width="30" height="60" as="geometry" />
        </mxCell>
        <mxCell id="L3LKIXxvK_jKDaVPSzeJ-21" value="" style="html=1;verticalAlign=bottom;labelBackgroundColor=none;endArrow=oval;endFill=0;endSize=8;rounded=0;entryX=0.213;entryY=-0.01;entryDx=0;entryDy=0;entryPerimeter=0;exitX=0.333;exitY=0.833;exitDx=0;exitDy=0;exitPerimeter=0;" edge="1" parent="1" source="L3LKIXxvK_jKDaVPSzeJ-5" target="L3LKIXxvK_jKDaVPSzeJ-19">
          <mxGeometry width="160" relative="1" as="geometry">
            <mxPoint x="110" y="340" as="sourcePoint" />
            <mxPoint x="270" y="350" as="targetPoint" />
          </mxGeometry>
        </mxCell>
        <mxCell id="L3LKIXxvK_jKDaVPSzeJ-22" style="edgeStyle=orthogonalEdgeStyle;rounded=0;orthogonalLoop=1;jettySize=auto;html=1;exitX=0.5;exitY=0.5;exitDx=0;exitDy=0;exitPerimeter=0;entryX=0;entryY=0.3333333333333333;entryDx=0;entryDy=0;entryPerimeter=0;" edge="1" parent="1" source="L3LKIXxvK_jKDaVPSzeJ-19" target="L3LKIXxvK_jKDaVPSzeJ-19">
          <mxGeometry relative="1" as="geometry" />
        </mxCell>
      </root>
    </mxGraphModel>
  </diagram>
</mxfile>
